<svg width="80" height="80" viewBox="0 0 80 80" fill="none" xmlns="http://www.w3.org/2000/svg">
<path d="M23.6219 54.417H25.8891C26.1378 54.417 26.3762 54.3182 26.552 54.1424C26.7279 53.9666 26.8266 53.7281 26.8266 53.4795C26.8266 53.2309 26.7279 52.9924 26.552 52.8166C26.3762 52.6408 26.1378 52.542 25.8891 52.542H23.6219C23.3733 52.542 23.1349 52.6408 22.959 52.8166C22.7832 52.9924 22.6844 53.2309 22.6844 53.4795C22.6844 53.7281 22.7832 53.9666 22.959 54.1424C23.1349 54.3182 23.3733 54.417 23.6219 54.417Z" fill="white"/>
<path d="M34.3579 56.791H37.2579C37.5066 56.791 37.745 56.6922 37.9208 56.5164C38.0966 56.3406 38.1954 56.1022 38.1954 55.8535C38.1954 55.6049 38.0966 55.3664 37.9208 55.1906C37.745 55.0148 37.5066 54.916 37.2579 54.916H34.3579C34.1093 54.916 33.8708 55.0148 33.695 55.1906C33.5192 55.3664 33.4204 55.6049 33.4204 55.8535C33.4204 56.1022 33.5192 56.3406 33.695 56.5164C33.8708 56.6922 34.1093 56.791 34.3579 56.791Z" fill="white"/>
<path d="M50.7891 61.6934H53.2141C53.4627 61.6934 53.7012 61.5946 53.877 61.4188C54.0528 61.243 54.1516 61.0045 54.1516 60.7559C54.1516 60.5072 54.0528 60.2688 53.877 60.0929C53.7012 59.9171 53.4627 59.8184 53.2141 59.8184H50.7891C50.5404 59.8184 50.302 59.9171 50.1262 60.0929C49.9503 60.2688 49.8516 60.5072 49.8516 60.7559C49.8516 61.0045 49.9503 61.243 50.1262 61.4188C50.302 61.5946 50.5404 61.6934 50.7891 61.6934Z" fill="white"/>
<path d="M25.8485 61.2314C25.8485 61.4801 25.9473 61.7185 26.1231 61.8944C26.2989 62.0702 26.5374 62.1689 26.786 62.1689H29.0532C29.3018 62.1689 29.5403 62.0702 29.7161 61.8944C29.8919 61.7185 29.9907 61.4801 29.9907 61.2314C29.9907 60.9828 29.8919 60.7443 29.7161 60.5685C29.5403 60.3927 29.3018 60.2939 29.0532 60.2939H26.786C26.5374 60.2939 26.2989 60.3927 26.1231 60.5685C25.9473 60.7443 25.8485 60.9828 25.8485 61.2314Z" fill="white"/>
<path d="M64.0876 63.2871C64.0876 63.5357 64.1864 63.7742 64.3622 63.95C64.538 64.1258 64.7765 64.2246 65.0251 64.2246H67.7673C68.016 64.2246 68.2544 64.1258 68.4302 63.95C68.6061 63.7742 68.7048 63.5357 68.7048 63.2871C68.7048 63.0385 68.6061 62.8 68.4302 62.6242C68.2544 62.4484 68.016 62.3496 67.7673 62.3496H65.0251C64.7765 62.3496 64.538 62.4484 64.3622 62.6242C64.1864 62.8 64.0876 63.0385 64.0876 63.2871Z" fill="white"/>
<path d="M14.1844 62.3496H11.4423C11.1936 62.3496 10.9552 62.4484 10.7793 62.6242C10.6035 62.8 10.5048 63.0385 10.5048 63.2871C10.5048 63.5357 10.6035 63.7742 10.7793 63.95C10.9552 64.1258 11.1936 64.2246 11.4423 64.2246H14.1844C14.4331 64.2246 14.6715 64.1258 14.8474 63.95C15.0232 63.7742 15.1219 63.5357 15.1219 63.2871C15.1219 63.0385 15.0232 62.8 14.8474 62.6242C14.6715 62.4484 14.4331 62.3496 14.1844 62.3496Z" fill="white"/>
<path d="M44.3235 54.708H46.5907C46.8393 54.708 47.0778 54.6092 47.2536 54.4334C47.4294 54.2576 47.5282 54.0191 47.5282 53.7705C47.5282 53.5219 47.4294 53.2834 47.2536 53.1076C47.0778 52.9318 46.8393 52.833 46.5907 52.833H44.3235C44.0748 52.833 43.8364 52.9318 43.6606 53.1076C43.4848 53.2834 43.386 53.5219 43.386 53.7705C43.386 54.0191 43.4848 54.2576 43.6606 54.4334C43.8364 54.6092 44.0748 54.708 44.3235 54.708Z" fill="white"/>
<path d="M36.6719 41.6918H43.3281C43.5768 41.6918 43.8152 41.593 43.991 41.4172C44.1669 41.2414 44.2656 41.0029 44.2656 40.7543V36.2793C44.2656 35.148 43.8162 34.063 43.0163 33.263C42.2163 32.4631 41.1313 32.0137 40 32.0137C38.8687 32.0137 37.7837 32.4631 36.9837 33.263C36.1838 34.063 35.7344 35.148 35.7344 36.2793V40.7543C35.7344 41.0029 35.8331 41.2414 36.009 41.4172C36.1848 41.593 36.4232 41.6918 36.6719 41.6918ZM37.6094 36.2793C37.6094 35.6453 37.8612 35.0372 38.3096 34.5889C38.7579 34.1405 39.366 33.8887 40 33.8887C40.634 33.8887 41.2421 34.1405 41.6904 34.5889C42.1388 35.0372 42.3906 35.6453 42.3906 36.2793V39.8168H37.6094V36.2793Z" fill="white"/>
<path d="M32.6766 29.8926C32.428 29.8926 32.1895 29.9913 32.0137 30.1672C31.8379 30.343 31.7391 30.5814 31.7391 30.8301V31.5504C31.7391 31.799 31.8379 32.0375 32.0137 32.2133C32.1895 32.3891 32.428 32.4879 32.6766 32.4879C32.9253 32.4879 33.1637 32.3891 33.3395 32.2133C33.5154 32.0375 33.6141 31.799 33.6141 31.5504V30.8301C33.6141 30.5814 33.5154 30.343 33.3395 30.1672C33.1637 29.9913 32.9253 29.8926 32.6766 29.8926Z" fill="white"/>
<path d="M32.6766 33.4512C32.428 33.4512 32.1895 33.5499 32.0137 33.7258C31.8379 33.9016 31.7391 34.14 31.7391 34.3887V40.248C31.7391 40.4967 31.8379 40.7351 32.0137 40.911C32.1895 41.0868 32.428 41.1855 32.6766 41.1855C32.9253 41.1855 33.1637 41.0868 33.3395 40.911C33.5154 40.7351 33.6141 40.4967 33.6141 40.248V34.3887C33.6141 34.14 33.5154 33.9016 33.3395 33.7258C33.1637 33.5499 32.9253 33.4512 32.6766 33.4512Z" fill="white"/>
<path d="M65.5407 48.7344C65.5407 48.4857 65.4419 48.2473 65.2661 48.0715C65.0903 47.8956 64.8518 47.7969 64.6032 47.7969H62.0204C61.7717 47.7969 61.5333 47.8956 61.3575 48.0715C61.1817 48.2473 61.0829 48.4857 61.0829 48.7344C61.0829 48.983 61.1817 49.2215 61.3575 49.3973C61.5333 49.5731 61.7717 49.6719 62.0204 49.6719H64.6032C64.8518 49.6719 65.0903 49.5731 65.2661 49.3973C65.4419 49.2215 65.5407 48.983 65.5407 48.7344Z" fill="white"/>
<path d="M19.6297 42.6973C19.6297 42.4486 19.5309 42.2102 19.3551 42.0344C19.1793 41.8585 18.9408 41.7598 18.6922 41.7598H16.1078C15.8591 41.7598 15.6207 41.8585 15.4449 42.0344C15.2691 42.2102 15.1703 42.4486 15.1703 42.6973C15.1703 42.9459 15.2691 43.1844 15.4449 43.3602C15.6207 43.536 15.8591 43.6348 16.1078 43.6348H18.6922C18.9408 43.6348 19.1793 43.536 19.3551 43.3602C19.5309 43.1844 19.6297 42.9459 19.6297 42.6973Z" fill="white"/>
<path d="M72.553 72.3329V39.3998C73.2087 39.382 73.8316 39.1092 74.2894 38.6395C74.7471 38.1697 75.0037 37.54 75.0046 36.8841V28.3438C75.0046 28.0952 74.9058 27.8567 74.73 27.6809C74.5542 27.5051 74.3158 27.4063 74.0671 27.4063H70.528C70.2794 27.4063 70.0409 27.5051 69.8651 27.6809C69.6893 27.8567 69.5905 28.0952 69.5905 28.3438V30.2532H67.6796V28.3438C67.6796 28.0952 67.5808 27.8567 67.405 27.6809C67.2292 27.5051 66.9907 27.4063 66.7421 27.4063H63.203C62.9544 27.4063 62.7159 27.5051 62.5401 27.6809C62.3643 27.8567 62.2655 28.0952 62.2655 28.3438V30.2532H60.3546V28.3438C60.3546 28.0952 60.2558 27.8567 60.08 27.6809C59.9042 27.5051 59.6657 27.4063 59.4171 27.4063H55.878C55.6294 27.4063 55.3909 27.5051 55.2151 27.6809C55.0393 27.8567 54.9405 28.0952 54.9405 28.3438V36.8845C54.9414 37.5404 55.198 38.1701 55.6558 38.6398C56.1136 39.1095 56.7365 39.3823 57.3921 39.4001V44.8048H53.5093C53.2607 44.8048 53.0222 44.9035 52.8464 45.0794C52.6706 45.2552 52.5718 45.4936 52.5718 45.7423V47.6516H51.7515V27.6204H53.3405C53.5229 27.6203 53.7012 27.5671 53.8538 27.4672C54.0063 27.3673 54.1264 27.2251 54.1994 27.058C54.2724 26.8909 54.295 26.7062 54.2646 26.5264C54.2341 26.3466 54.1519 26.1796 54.028 26.0459L40.9374 11.9123V9.65008L47.413 6.83164C47.5783 6.75968 47.7194 6.64158 47.8193 6.4915C47.9192 6.34141 47.9737 6.16571 47.9762 5.98544C47.9788 5.80518 47.9293 5.62799 47.8338 5.47512C47.7382 5.32224 47.6006 5.20017 47.4374 5.12352L40.8243 2.01742C40.725 1.83401 40.5673 1.68895 40.3763 1.60522C40.1852 1.52149 39.9717 1.50386 39.7695 1.55512C39.5673 1.60639 39.388 1.72362 39.2599 1.88826C39.1319 2.0529 39.0624 2.25555 39.0624 2.46414V11.9123L25.9715 26.0459C25.8476 26.1796 25.7654 26.3466 25.735 26.5264C25.7045 26.7062 25.7272 26.8909 25.8001 27.058C25.8731 27.2251 25.9932 27.3673 26.1457 27.4672C26.2983 27.5671 26.4767 27.6203 26.659 27.6204H28.248V47.6516H27.4277V45.7423C27.4277 45.4936 27.329 45.2552 27.1531 45.0794C26.9773 44.9035 26.7389 44.8048 26.4902 44.8048H22.6077V39.3998C23.2634 39.382 23.8863 39.1092 24.344 38.6395C24.8018 38.1697 25.0584 37.54 25.0593 36.8841V28.3438C25.0593 28.0952 24.9605 27.8567 24.7847 27.6809C24.6089 27.5051 24.3704 27.4063 24.1218 27.4063H20.5827C20.3341 27.4063 20.0956 27.5051 19.9198 27.6809C19.744 27.8567 19.6452 28.0952 19.6452 28.3438V30.2532H17.7343V28.3438C17.7343 28.0952 17.6355 27.8567 17.4597 27.6809C17.2839 27.5051 17.0454 27.4063 16.7968 27.4063H13.2577C13.0091 27.4063 12.7706 27.5051 12.5948 27.6809C12.419 27.8567 12.3202 28.0952 12.3202 28.3438V30.2532H10.4093V28.3438C10.4093 28.0952 10.3105 27.8567 10.1347 27.6809C9.9589 27.5051 9.72044 27.4063 9.4718 27.4063H5.93274C5.6841 27.4063 5.44564 27.5051 5.26983 27.6809C5.09401 27.8567 4.99524 28.0952 4.99524 28.3438V36.8845C4.99614 37.5404 5.25273 38.1701 5.7105 38.6398C6.16827 39.1095 6.79114 39.3823 7.4468 39.4001V72.3329C6.27754 72.3821 5.17243 72.8808 4.36196 73.7251C3.5515 74.5693 3.09826 75.6938 3.0968 76.8641V77.536C3.0968 77.7847 3.19557 78.0231 3.37139 78.1989C3.5472 78.3747 3.78566 78.4735 4.0343 78.4735H75.9655C76.2142 78.4735 76.4526 78.3747 76.6285 78.1989C76.8043 78.0231 76.903 77.7847 76.903 77.536V76.8641C76.9016 75.6938 76.4483 74.5693 75.6379 73.7251C74.8274 72.8808 73.7223 72.3821 72.553 72.3329ZM40.9374 4.14195L44.7645 5.93883L40.9374 7.60508V4.14195ZM56.8155 36.8845V29.2813H58.4796V31.1907C58.4796 31.4393 58.5784 31.6778 58.7542 31.8536C58.93 32.0294 59.1685 32.1282 59.4171 32.1282H63.203C63.4517 32.1282 63.6901 32.0294 63.866 31.8536C64.0418 31.6778 64.1405 31.4393 64.1405 31.1907V29.2813H65.8046V31.1907C65.8046 31.4393 65.9034 31.6778 66.0792 31.8536C66.255 32.0294 66.4935 32.1282 66.7421 32.1282H70.528C70.7767 32.1282 71.0151 32.0294 71.191 31.8536C71.3668 31.6778 71.4655 31.4393 71.4655 31.1907V29.2813H73.1296V36.8845C73.1294 37.0551 73.0616 37.2188 72.9409 37.3395C72.8202 37.4602 72.6565 37.528 72.4859 37.5282H57.4593C57.2886 37.528 57.125 37.4602 57.0043 37.3395C56.8836 37.2188 56.8157 37.0551 56.8155 36.8845ZM39.9999 13.6593L51.1943 25.7454H36.0937C35.845 25.7454 35.6066 25.8442 35.4308 26.02C35.2549 26.1958 35.1562 26.4343 35.1562 26.6829C35.1562 26.9315 35.2549 27.17 35.4308 27.3458C35.6066 27.5216 35.845 27.6204 36.0937 27.6204H49.8765V47.6516H49.2296V45.7423C49.2296 45.4936 49.1308 45.2552 48.955 45.0794C48.7792 44.9035 48.5407 44.8048 48.2921 44.8048H42.4515C42.2028 44.8048 41.9644 44.9035 41.7886 45.0794C41.6128 45.2552 41.514 45.4936 41.514 45.7423V47.6516H38.4859V45.7423C38.4859 45.4936 38.3871 45.2552 38.2113 45.0794C38.0355 44.9035 37.797 44.8048 37.5484 44.8048H31.7077C31.4591 44.8048 31.2206 44.9035 31.0448 45.0794C30.869 45.2552 30.7702 45.4936 30.7702 45.7423V47.6516H30.1234V27.6204H32.6562C32.9048 27.6204 33.1433 27.5216 33.3191 27.3458C33.4949 27.17 33.5937 26.9315 33.5937 26.6829C33.5937 26.4343 33.4949 26.1958 33.3191 26.02C33.1433 25.8442 32.9048 25.7454 32.6562 25.7454H28.8056L39.9999 13.6593ZM25.553 46.6798V48.5891C25.553 48.8378 25.6518 49.0762 25.8276 49.2521C26.0035 49.4279 26.2419 49.5266 26.4905 49.5266H31.7077C31.9564 49.5266 32.1948 49.4279 32.3706 49.2521C32.5465 49.0762 32.6452 48.8378 32.6452 48.5891V46.6798H36.6109V48.5891C36.6109 48.8378 36.7096 49.0762 36.8854 49.2521C37.0613 49.4279 37.2997 49.5266 37.5484 49.5266H42.4515C42.7001 49.5266 42.9386 49.4279 43.1144 49.2521C43.2902 49.0762 43.389 48.8378 43.389 48.5891V46.6798H47.3546V48.5891C47.3546 48.8378 47.4534 49.0762 47.6292 49.2521C47.805 49.4279 48.0435 49.5266 48.2921 49.5266H53.5093C53.7579 49.5266 53.9964 49.4279 54.1722 49.2521C54.348 49.0762 54.4468 48.8378 54.4468 48.5891V46.6798H58.103V51.5938H56.3249C56.0763 51.5938 55.8378 51.6926 55.662 51.8684C55.4862 52.0442 55.3874 52.2827 55.3874 52.5313C55.3874 52.78 55.4862 53.0184 55.662 53.1942C55.8378 53.3701 56.0763 53.4688 56.3249 53.4688H58.103V61.1782C58.103 61.4268 58.2018 61.6653 58.3776 61.8411C58.5535 62.0169 58.7919 62.1157 59.0405 62.1157C59.2892 62.1157 59.5276 62.0169 59.7035 61.8411C59.8793 61.6653 59.978 61.4268 59.978 61.1782V57.1063H62.389C62.6376 57.1063 62.8761 57.0076 63.0519 56.8317C63.2277 56.6559 63.3265 56.4175 63.3265 56.1688C63.3265 55.9202 63.2277 55.6817 63.0519 55.5059C62.8761 55.3301 62.6376 55.2313 62.389 55.2313H59.978V45.7423C59.9778 45.5332 59.9077 45.3302 59.7789 45.1656C59.6501 45.0009 59.47 44.884 59.2671 44.8335V39.4032H70.678V40.9954H68.1984C67.9497 40.9954 67.7113 41.0942 67.5354 41.27C67.3596 41.4458 67.2609 41.6842 67.2609 41.9329C67.2609 42.1815 67.3596 42.42 67.5354 42.5958C67.7113 42.7716 67.9497 42.8704 68.1984 42.8704H70.678V69.7845H68.3468C68.0982 69.7845 67.8597 69.8832 67.6839 70.059C67.5081 70.2349 67.4093 70.4733 67.4093 70.722C67.4093 70.9706 67.5081 71.2091 67.6839 71.3849C67.8597 71.5607 68.0982 71.6595 68.3468 71.6595H70.678V72.3282H59.978V64.4532C59.978 64.2046 59.8793 63.9661 59.7035 63.7903C59.5276 63.6145 59.2892 63.5157 59.0405 63.5157C58.7919 63.5157 58.5535 63.6145 58.3776 63.7903C58.2018 63.9661 58.103 64.2046 58.103 64.4532V67.886H56.1671C55.9185 67.886 55.68 67.9848 55.5042 68.1606C55.3284 68.3364 55.2296 68.5749 55.2296 68.8235C55.2296 69.0722 55.3284 69.3106 55.5042 69.4864C55.68 69.6622 55.9185 69.761 56.1671 69.761H58.103V72.3282H46.2359V67.836H50.2218C50.4704 67.836 50.7089 67.7372 50.8847 67.5614C51.0605 67.3856 51.1593 67.1472 51.1593 66.8985C51.1593 66.6499 51.0605 66.4114 50.8847 66.2356C50.7089 66.0598 50.4704 65.961 50.2218 65.961H46.2298C46.1971 65.0651 45.9414 64.1916 45.4859 63.4194C45.0304 62.6473 44.3895 62.001 43.6212 61.5391L40.4805 59.6641C40.3352 59.5774 40.1692 59.5316 39.9999 59.5316C39.8307 59.5316 39.6646 59.5774 39.5193 59.6641L36.3787 61.5391C35.5829 62.017 34.9241 62.6923 34.466 63.4996C34.0079 64.3068 33.7661 65.2188 33.764 66.1469V69.1516H31.2124C30.9638 69.1516 30.7253 69.2504 30.5495 69.4262C30.3737 69.602 30.2749 69.8405 30.2749 70.0891C30.2749 70.3378 30.3737 70.5762 30.5495 70.7521C30.7253 70.9279 30.9638 71.0266 31.2124 71.0266H33.764V72.3282H21.8968V66.597H23.6749C23.9236 66.597 24.162 66.4982 24.3378 66.3224C24.5137 66.1466 24.6124 65.9081 24.6124 65.6595C24.6124 65.4108 24.5137 65.1724 24.3378 64.9965C24.162 64.8207 23.9236 64.722 23.6749 64.722H21.8968V46.6798H25.553ZM44.3609 66.1469V72.3282H35.639V66.1469C35.6402 65.543 35.7975 64.9497 36.0955 64.4244C36.3935 63.8991 36.8222 63.4597 37.3399 63.1488L39.9999 61.5607L42.6604 63.149C43.178 63.4599 43.6066 63.8993 43.9045 64.4246C44.2024 64.9498 44.3596 65.5431 44.3609 66.1469ZM6.87024 36.8845V29.2813H8.5343V31.1907C8.5343 31.4393 8.63307 31.6778 8.80889 31.8536C8.9847 32.0294 9.22316 32.1282 9.4718 32.1282H13.2577C13.5064 32.1282 13.7448 32.0294 13.9207 31.8536C14.0965 31.6778 14.1952 31.4393 14.1952 31.1907V29.2813H15.8593V31.1907C15.8593 31.4393 15.9581 31.6778 16.1339 31.8536C16.3097 32.0294 16.5482 32.1282 16.7968 32.1282H20.5827C20.8314 32.1282 21.0698 32.0294 21.2456 31.8536C21.4215 31.6778 21.5202 31.4393 21.5202 31.1907V29.2813H23.1843V36.8845C23.1841 37.0551 23.1163 37.2188 22.9956 37.3395C22.8749 37.4602 22.7112 37.528 22.5405 37.5282H7.51399C7.34331 37.528 7.17966 37.4602 7.05897 37.3395C6.93828 37.2188 6.8704 37.0551 6.87024 36.8845ZM18.2437 57.2641H20.0218V65.4413C19.9864 65.5846 19.9864 65.7343 20.0218 65.8776V69.1516H17.6109C17.3622 69.1516 17.1238 69.2504 16.948 69.4262C16.7721 69.602 16.6734 69.8405 16.6734 70.0891C16.6734 70.3378 16.7721 70.5762 16.948 70.7521C17.1238 70.9279 17.3622 71.0266 17.6109 71.0266H20.0218V72.3282H9.3218V50.147H11.7952C12.0439 50.147 12.2823 50.0482 12.4582 49.8724C12.634 49.6966 12.7327 49.4581 12.7327 49.2095C12.7327 48.9608 12.634 48.7224 12.4582 48.5465C12.2823 48.3707 12.0439 48.272 11.7952 48.272H9.3218V39.4032H20.7327V44.8335C20.5299 44.884 20.3497 45.0009 20.2209 45.1656C20.0921 45.3302 20.022 45.5332 20.0218 45.7423V55.3891H18.2437C17.995 55.3891 17.7566 55.4879 17.5808 55.6637C17.4049 55.8395 17.3062 56.078 17.3062 56.3266C17.3062 56.5753 17.4049 56.8137 17.5808 56.9896C17.7566 57.1654 17.995 57.2641 18.2437 57.2641ZM4.9843 76.5985C5.05098 75.9423 5.35871 75.3341 5.84793 74.8916C6.33715 74.4491 6.9731 74.2038 7.63274 74.2032H72.3671C73.0267 74.2038 73.6627 74.4491 74.1519 74.8916C74.6411 75.3341 74.9489 75.9423 75.0155 76.5985H4.9843Z" fill="white"/>
</svg>
