<svg width="80" height="80" viewBox="0 0 80 80" fill="none" xmlns="http://www.w3.org/2000/svg">
<g clip-path="url(#clip0)">
<path d="M74.9285 3.13005L73.6388 2.80893C59.347 -0.750114 44.4006 -0.750114 30.1088 2.80893L28.8204 3.13005C25.8369 3.87233 23.7434 6.55306 23.7467 9.6275V18.9535C17.0884 20.8396 10.6687 23.4863 4.61601 26.8413L3.44666 27.4855C0.756773 28.9714 -0.570186 32.1027 0.232268 35.0693L4.13009 49.6442C7.64401 62.7255 17.314 73.2718 30.0414 77.9054L34.0596 79.3788C38.8259 81.093 44.1553 79.662 47.4214 75.7904L50.1649 72.5132C52.7188 69.4747 54.8148 66.0798 56.3877 62.4351C57.232 62.1074 58.0371 61.6837 58.7865 61.1735L62.29 58.721C73.385 50.947 79.9943 38.2523 80.0009 24.7047V9.6275C80.0042 6.55372 77.9114 3.87299 74.9285 3.13005ZM48.114 70.7919L45.3698 74.0716C42.8284 77.0826 38.6833 78.1957 34.9758 76.8616L30.9577 75.3888C19.0517 71.0535 10.0056 61.1873 6.71795 48.9503L2.81882 34.3754C2.33879 32.5978 3.1334 30.7228 4.74484 29.8321L5.91288 29.1879C11.5641 26.0546 17.5449 23.557 23.7467 21.7408V24.7047C23.7559 36.7023 28.9506 48.1093 37.9934 55.9932C35.6377 56.9507 33.1505 57.5484 30.6163 57.7649L20.5441 58.5817C19.9346 58.6301 19.4349 59.0853 19.3303 59.6883C19.2256 60.2913 19.5428 60.8884 20.1007 61.1389L33.4533 67.1661C36.361 68.4839 39.7945 67.5657 41.6571 64.9719L44.5791 60.9074L44.9611 61.1748C46.9878 62.5901 49.4017 63.3481 51.8738 63.3448C52.2753 63.3448 52.6638 63.2938 53.0588 63.2552C51.7136 65.9536 50.0537 68.4833 48.114 70.7919ZM40.355 57.9016C40.7205 58.1697 41.077 58.4588 41.453 58.721L42.3804 59.3698L39.4766 63.4102C38.3583 64.9648 36.2982 65.5141 34.554 64.7228L25.9324 60.8387L30.8321 60.4371C34.1309 60.1605 37.3551 59.3024 40.355 57.9016ZM77.3221 24.7047C77.3169 37.3785 71.134 49.2531 60.7551 56.5262L57.2516 58.9787C54.0196 61.2304 49.7274 61.2304 46.496 58.9787L42.9938 56.5262C32.6143 49.2538 26.4307 37.3785 26.4255 24.7047V9.6275C26.4255 7.78389 27.6798 6.17702 29.4685 5.72968L30.7582 5.40726C44.6236 1.95351 59.124 1.95351 72.9894 5.40726L74.2791 5.72968C76.0671 6.17702 77.3221 7.78389 77.3221 9.6275V24.7047Z" fill="white"/>
<path d="M46.9079 25.1428L48.7346 23.1821C44.547 19.0044 37.7683 19.0044 33.5808 23.1821L33.5141 23.2488L35.4748 25.0761C36.9934 23.5569 39.0574 22.7086 41.2051 22.7211C43.3535 22.7341 45.407 23.6059 46.9079 25.1428Z" fill="white"/>
<path d="M55.0109 23.1821L54.9442 23.2488L56.9049 25.0761C58.4235 23.5569 60.4875 22.7086 62.6352 22.7211C64.7836 22.7341 66.8371 23.6059 68.3381 25.1428L70.1647 23.1821C65.9771 19.0044 59.1985 19.0044 55.0109 23.1821Z" fill="white"/>
<path d="M19.098 44.5549C21.1921 43.9931 23.4242 44.3012 25.2875 45.409L26.5359 43.037C21.4112 40.0783 14.8582 41.8336 11.8989 46.9577L11.8524 47.0394L13.0106 47.7091L14.216 48.2958C15.2781 46.4463 17.036 45.099 19.098 44.5549Z" fill="white"/>
<path d="M66.3661 37.6112L56.4267 39.4195C53.4157 39.9689 50.3302 39.9689 47.3192 39.4195L37.3778 37.6112C36.7774 37.502 36.1783 37.8127 35.9226 38.3673C35.6663 38.9218 35.8173 39.5791 36.2902 39.9656L47.6324 49.2426C50.1019 51.2529 53.644 51.2529 56.1134 49.2426L67.4537 39.963C67.9266 39.5765 68.0783 38.9192 67.8219 38.3646C67.5662 37.8101 66.9672 37.4994 66.3661 37.6086V37.6112ZM54.4176 47.1714C52.9363 48.3793 50.8095 48.3793 49.3282 47.1714L41.9963 41.1736L46.8404 42.0538C50.1673 42.6621 53.5759 42.6621 56.9022 42.0538L61.747 41.1736L54.4176 47.1714Z" fill="white"/>
</g>
<defs>
<clipPath id="clip0">
<rect width="80" height="80" fill="white"/>
</clipPath>
</defs>
</svg>
