<svg width="80" height="80" viewBox="0 0 80 80" fill="none" xmlns="http://www.w3.org/2000/svg">
<g clip-path="url(#clip0)">
<path d="M51.7267 69.1653C52.7362 68.0721 53.1702 66.7318 53.1702 65.2499C53.1702 63.7637 52.7447 62.4142 51.7267 61.3217C50.7349 60.256 49.4818 59.7646 48.0383 59.7646C46.5906 59.7646 45.3241 60.2426 44.3237 61.304C43.3008 62.3922 42.8802 63.7374 42.8802 65.2236C42.8802 66.719 43.3008 68.0813 44.328 69.1787C45.3241 70.2444 46.5771 70.7357 48.0249 70.7357C49.4769 70.7357 50.7343 70.2401 51.7267 69.1653ZM46.4044 67.4001C45.9216 66.7849 45.7758 66.0018 45.7758 65.2365C45.7758 64.476 45.9351 63.7234 46.4221 63.1265C46.8384 62.6132 47.3651 62.3568 48.0249 62.3568C48.689 62.3568 49.2291 62.6003 49.6411 63.1265C50.1239 63.7368 50.274 64.5022 50.274 65.2633C50.274 66.0244 50.1147 66.7849 49.6368 67.391C49.2206 67.9171 48.689 68.1698 48.0249 68.1698C47.3566 68.1698 46.8207 67.9263 46.4044 67.4001Z" fill="white"/>
<path d="M41.3348 59.9414H36.1371C35.7831 59.9414 35.473 60.0781 35.2295 60.3351C34.9902 60.5872 34.8621 60.8923 34.8621 61.2421C34.8621 61.6089 34.9902 61.9275 35.2515 62.1838C35.495 62.4139 35.7874 62.5513 36.1237 62.5513H37.337V69.2578C37.337 69.6423 37.4786 69.9786 37.7484 70.2484L37.7533 70.2576L37.7618 70.2618C38.045 70.5139 38.382 70.6689 38.7628 70.6689C39.1388 70.6689 39.4666 70.5182 39.7278 70.2484C39.9933 69.9744 40.1349 69.6423 40.1349 69.2578V62.5647H41.3348C41.6846 62.5647 41.9946 62.4365 42.2424 62.1838C42.4902 61.9318 42.6233 61.6223 42.6233 61.2683C42.6233 60.91 42.4951 60.5914 42.2467 60.3351C41.9989 60.0781 41.6888 59.9414 41.3348 59.9414Z" fill="white"/>
<path d="M31.2664 67.7671C31.0411 67.9398 30.7665 68.0015 30.4827 68.0015C30.0444 68.0015 29.5354 67.847 29.1283 67.6963C28.8402 67.595 28.3531 67.418 28.0522 67.418C27.6976 67.418 27.3882 67.5504 27.1532 67.8159C26.9097 68.0857 26.8035 68.4128 26.8035 68.7711V68.8419C26.8035 69.5231 27.3394 69.9521 27.9015 70.2219C28.6632 70.5851 29.5397 70.6956 30.3722 70.6956C31.4525 70.6956 32.5017 70.4343 33.33 69.7001C34.1045 69.0104 34.4676 68.1254 34.4676 67.0859C34.4676 65.9885 34.0428 65.095 33.1035 64.52C32.5237 64.1483 31.7314 63.9005 31.0717 63.7107C30.8062 63.6399 30.5406 63.5599 30.2837 63.4629C30.1952 63.4318 30.0267 63.3701 29.9468 63.3121C29.8632 63.2413 29.7655 63.1443 29.7655 63.0247C29.7655 62.8568 29.8497 62.7415 29.9779 62.6444C30.1641 62.5071 30.3807 62.454 30.6066 62.454C30.8232 62.454 31.1028 62.5248 31.3103 62.5828L31.7046 62.7195C31.9481 62.7994 32.2716 62.9014 32.528 62.9014C32.8868 62.9014 33.192 62.7598 33.4313 62.4943C33.6705 62.233 33.7902 61.9144 33.7902 61.5604C33.7902 60.9458 33.3696 60.5253 32.86 60.2469C32.227 59.9064 31.4965 59.791 30.7885 59.791C29.7478 59.791 28.778 60.0651 27.9766 60.7468C27.224 61.3969 26.8431 62.233 26.8431 63.2328C26.8431 64.1837 27.1935 64.976 27.9943 65.4978C28.2335 65.6571 28.5259 65.781 28.7957 65.8872C29.1899 66.0374 29.597 66.1655 30.0048 66.2852C30.3807 66.3956 30.8239 66.5238 31.1821 66.6874C31.2798 66.7319 31.4122 66.807 31.4702 66.9041C31.5233 67.0017 31.5453 67.1165 31.5453 67.2269C31.5453 67.4576 31.4525 67.6255 31.2664 67.7671Z" fill="white"/>
<path d="M66.7932 70.2527C67.0679 70.5182 67.3956 70.6689 67.7759 70.6689C68.1659 70.6689 68.5065 70.5182 68.772 70.2307C69.0332 69.9518 69.1754 69.6161 69.1754 69.231V65.6476L71.7743 62.0911C71.9598 61.839 72.0483 61.5515 72.0483 61.2415C72.0483 60.8521 71.8982 60.5164 71.615 60.2509C71.3446 59.9896 71.0126 59.8438 70.636 59.8438C70.1538 59.8438 69.7638 60.0562 69.494 60.4541L67.7759 62.9181L66.0718 60.4541C65.8057 60.0513 65.412 59.8438 64.9292 59.8438C64.5349 59.8438 64.1809 59.9811 63.902 60.2643C63.6365 60.5298 63.4857 60.8612 63.4857 61.2415C63.4857 61.5558 63.6053 61.8433 63.7915 62.0911L66.3635 65.6476V69.231C66.3635 69.6289 66.5057 69.9786 66.7932 70.2527Z" fill="white"/>
<path d="M62.5823 63.3562C62.5823 62.3827 62.2417 61.5471 61.5111 60.8965C60.7677 60.233 59.851 59.959 58.8591 59.959H56.2914C55.8971 59.959 55.5516 60.0957 55.277 60.3746C54.9938 60.6578 54.8607 61.0118 54.8607 61.4098V69.2308C54.8607 69.6245 54.998 69.97 55.277 70.2483L55.2819 70.2574L55.2861 70.2617C55.5736 70.5138 55.9056 70.6688 56.2908 70.6688C56.6674 70.6688 57.0037 70.5364 57.274 70.266C57.5438 69.9919 57.6769 69.6556 57.6769 69.2705V67.0104L60.1787 70.089C60.4619 70.4387 60.8251 70.6688 61.281 70.6688C61.6619 70.6688 62.0024 70.5315 62.2863 70.2709L62.2948 70.266L62.2991 70.2574C62.556 69.9742 62.7068 69.6422 62.7068 69.2577C62.7068 68.908 62.578 68.6028 62.3436 68.3422L60.4576 66.267C60.7762 66.1785 61.0997 66.0594 61.3518 65.8867C62.2197 65.2892 62.5823 64.3956 62.5823 63.3562ZM59.514 64.0239C59.3328 64.1967 59.1246 64.2852 58.8719 64.2852H57.6903V62.5823H58.8457C59.0978 62.5823 59.3236 62.6482 59.5055 62.8344L59.5098 62.8386L59.5189 62.8429C59.691 62.9979 59.7844 63.1792 59.7844 63.4136C59.7844 63.6571 59.691 63.8518 59.514 64.0239Z" fill="white"/>
<path d="M17.9358 70.2711C18.2056 70.5452 18.5419 70.6825 18.927 70.6825C19.317 70.6825 19.6533 70.5366 19.9237 70.2534C20.1849 69.9788 20.3265 69.6516 20.3265 69.2714V61.2684C20.3265 60.8748 20.1892 60.5299 19.9146 60.2467C19.6448 59.9769 19.3127 59.8311 18.9276 59.8311C18.5425 59.8311 18.2104 59.9946 17.9443 60.2729C17.6831 60.5519 17.5281 60.8839 17.5281 61.2684V63.8252H13.8574V61.2684C13.8574 60.879 13.7207 60.5385 13.4546 60.2601C13.1891 59.9812 12.8571 59.8311 12.4719 59.8311C12.0819 59.8311 11.7456 59.9904 11.4752 60.2729C11.2097 60.5519 11.059 60.8839 11.059 61.2684V69.2714C11.059 69.6602 11.1963 70.0007 11.4752 70.2754C11.7499 70.5452 12.0862 70.6825 12.4719 70.6825C12.8571 70.6825 13.1934 70.5452 13.4589 70.2711C13.7292 69.9971 13.8574 69.6565 13.8574 69.2714V66.4357H17.5281V69.2708C17.5281 69.6602 17.6654 69.9965 17.9358 70.2711Z" fill="white"/>
<path d="M22.7258 60.2726C22.4646 60.5515 22.3096 60.8835 22.3096 61.2681V69.2576C22.3096 69.6421 22.4469 69.9833 22.7173 70.2573C22.9871 70.5314 23.3282 70.6687 23.7091 70.6687C24.0942 70.6687 24.4305 70.5314 24.7009 70.2573C24.9707 69.9875 25.108 69.6555 25.108 69.2704V61.2681C25.108 60.8787 24.975 60.5381 24.7052 60.2592C24.4397 59.9808 24.1077 59.8301 23.7219 59.8301C23.3325 59.8301 22.9962 59.99 22.7258 60.2726Z" fill="white"/>
<path d="M78.4246 24.9572H19.7814L77.3553 13.8268C77.7654 13.7474 78.128 13.5082 78.3618 13.1621C78.5961 12.8154 78.6828 12.3906 78.6029 11.9799L76.8633 2.9955C76.6973 2.141 75.8709 1.58192 75.017 1.74794L58.518 4.93702C58.4838 4.94252 58.449 4.94862 58.4149 4.95656L8.53999 14.5971C8.5345 14.5983 8.52961 14.5989 8.52412 14.6001L1.2768 16.0009C0.866038 16.0808 0.5041 16.3195 0.270335 16.6662C0.0359601 17.0122 -0.0507099 17.4376 0.0286359 17.8478L1.74006 26.6838V76.707C1.74006 77.5774 2.44563 78.283 3.31599 78.283H33.4008C34.2712 78.283 34.9768 77.5774 34.9768 76.707C34.9768 75.8373 34.2712 75.1317 33.4008 75.1317H4.89131V37.2612H11.8865L11.8908 37.2619L11.8933 37.2612H24.5935L24.5977 37.2619L24.6002 37.2612H37.3052L37.3089 37.2619L37.312 37.2612H50.0122L50.0158 37.2619L50.0189 37.2612H62.7191L62.7227 37.2619L62.7258 37.2612H76.8487V75.1317H47.5866C46.7163 75.1317 46.0107 75.8373 46.0107 76.707C46.0107 77.5774 46.7163 78.283 47.5866 78.283H78.4246C79.2944 78.283 79.9999 77.5774 79.9999 76.707V26.5331C79.9999 25.6627 79.2944 24.9572 78.4246 24.9572ZM53.1707 34.11L57.6763 28.1084H66.4422L61.9366 34.11H53.1707ZM40.4626 34.11L44.9652 28.1084H53.7353L49.2297 34.11H40.4626ZM27.752 34.11L32.2576 28.1084H41.0253L36.5228 34.11H27.752ZM15.0451 34.11L19.5507 28.1084H28.3172L23.8116 34.11H15.0451ZM4.89131 26.5331C4.89131 25.6456 5.61457 24.9236 6.50386 24.9236C7.39253 24.9236 8.11579 25.6456 8.11579 26.5331C8.11579 27.4205 7.39253 28.1426 6.50386 28.1426C5.61457 28.1426 4.89131 27.4205 4.89131 26.5331ZM20.9466 15.4088L27.2485 20.3038L18.8818 21.9213L12.583 17.0256L20.9466 15.4088ZM33.4228 12.9973L39.7241 17.8917L31.3623 19.5086L25.0604 14.6135L33.4228 12.9973ZM45.899 10.5858L52.1997 15.4802L43.8378 17.0964L37.5366 12.2026L45.899 10.5858ZM58.3795 8.17372L64.6765 13.0681L56.3134 14.6849L50.0128 9.79054L58.3795 8.17372ZM75.2093 11.032L68.789 12.2728L62.492 7.37843L74.0686 5.14088L75.2093 11.032ZM8.47041 17.8203L14.7698 22.7166L10.2447 23.5912C9.3719 22.4846 8.01997 21.7724 6.50386 21.7724C5.63655 21.7724 4.82417 22.0061 4.12287 22.412L3.4228 18.7963L8.47041 17.8203ZM4.89131 31.0125C5.39546 31.1943 5.93806 31.2938 6.50386 31.2938C8.57783 31.2938 10.3454 29.9614 10.9979 28.1084H15.6103L11.1047 34.11H4.89131V31.0125ZM65.8776 34.11L70.3832 28.1084H76.8487V34.11H65.8776Z" fill="white"/>
<path d="M70.4901 54.0409C71.3605 54.0409 72.066 53.3359 72.066 52.4656V46.0203C72.066 45.1499 71.3605 44.4443 70.4901 44.4443H10.3644C9.49402 44.4443 8.78845 45.1499 8.78845 46.0203V52.4656C8.78845 53.3359 9.49402 54.0409 10.3644 54.0409H70.4901ZM68.9148 50.8896H51.3849V47.5956H68.9148V50.8896ZM48.2336 50.8896H30.0177V47.5956H48.2336V50.8896ZM11.9403 47.5956H26.8665V50.8896H11.9403V47.5956Z" fill="white"/>
<path d="M40.5511 75.1318H40.5249C39.6545 75.1318 38.949 75.8368 38.949 76.7072C38.949 77.5775 39.6545 78.2831 40.5249 78.2831H40.5511C41.4215 78.2831 42.1271 77.5775 42.1271 76.7072C42.1271 75.8368 41.4215 75.1318 40.5511 75.1318Z" fill="white"/>
</g>
<defs>
<clipPath id="clip0">
<rect width="80" height="80" fill="white"/>
</clipPath>
</defs>
</svg>
