<svg width="80" height="80" viewBox="0 0 80 80" fill="none" xmlns="http://www.w3.org/2000/svg">
<g clip-path="url(#clip0)">
<path d="M77.9187 25.1072C77.6821 24.5441 77.331 24.0364 76.8878 23.6161C76.4445 23.1959 75.9188 22.8723 75.3439 22.666C74.769 22.4597 74.1575 22.3751 73.5482 22.4176C72.9389 22.4601 72.3451 22.6287 71.8044 22.9128C69.7469 23.9913 67.7699 25.2168 65.8887 26.5797C65.8887 26.3485 65.8887 26.1178 65.8887 25.8866C65.8887 19.0213 63.1615 12.4372 58.307 7.5827C53.4525 2.7282 46.8684 0.000976563 40.0031 0.000976562C33.1378 0.000976563 26.5537 2.7282 21.6992 7.5827C16.8447 12.4372 14.1175 19.0213 14.1175 25.8866V26.5797C12.2364 25.2168 10.2594 23.9913 8.20188 22.9128C7.22776 22.3957 6.09521 22.2623 5.02758 22.5389C3.95996 22.8156 3.03475 23.4823 2.43443 24.4075C1.8341 25.3327 1.60224 26.4492 1.78457 27.537C1.9669 28.6247 2.55018 29.6046 3.41938 30.2835C7.12913 33.3125 10.4133 36.8282 13.1831 40.7353C12.6488 45.0197 11.8839 49.2721 10.8919 53.4741L7.41688 67.6153C7.38116 67.761 7.37577 67.9124 7.40103 68.0602C7.4263 68.208 7.48168 68.349 7.56373 68.4745C7.64579 68.6 7.75277 68.7072 7.87803 68.7896C8.00329 68.872 8.14416 68.9278 8.29188 68.9535L12.38 69.6666C13.1056 69.793 13.7955 70.0739 14.4031 70.4901C15.0108 70.9063 15.5219 71.4482 15.9019 72.0791L16.3988 72.9047C17.1226 74.1021 18.1731 75.068 19.4269 75.6889C20.6808 76.3098 22.0858 76.5598 23.4769 76.4097L24.4406 76.3041C25.1702 76.225 25.9082 76.3026 26.6053 76.5316C27.3024 76.7606 27.9427 77.1359 28.4831 77.6322L29.1262 78.2235C30.1772 79.1909 31.488 79.8301 32.8974 80.0625C34.3068 80.2949 35.7534 80.1104 37.0594 79.5316L37.9169 79.1516C38.5735 78.8623 39.2831 78.7128 40.0006 78.7128C40.7181 78.7128 41.4278 78.8623 42.0844 79.1516L42.9419 79.5316C44.2477 80.111 45.6944 80.2958 47.104 80.0634C48.5135 79.831 49.8243 79.1914 50.875 78.2235L51.5181 77.6322C52.0587 77.136 52.6989 76.7608 53.396 76.5318C54.0931 76.3027 54.8311 76.2251 55.5606 76.3041L56.5244 76.4097C57.9156 76.5606 59.321 76.3108 60.575 75.6898C61.829 75.0687 62.8794 74.1022 63.6025 72.9041L64.1025 72.0797C64.4824 71.4487 64.9934 70.9066 65.6011 70.4903C66.2087 70.0739 66.8987 69.793 67.6244 69.6666L71.7125 68.9535C71.8602 68.9278 72.0011 68.872 72.1263 68.7896C72.2516 68.7072 72.3586 68.6 72.4406 68.4745C72.5227 68.349 72.5781 68.208 72.6033 68.0602C72.6286 67.9124 72.6232 67.761 72.5875 67.6153L69.115 53.4828C68.1215 49.2772 67.3558 45.021 66.8212 40.7328C69.591 36.8257 72.8752 33.3101 76.585 30.281C77.3449 29.685 77.8874 28.8553 78.1285 27.9201C78.3696 26.9849 78.2958 25.9963 77.9187 25.1072ZM75.2406 28.5553C71.2363 31.8201 67.7098 35.6306 64.7644 39.8753C64.6251 40.0903 64.5656 40.3473 64.5962 40.6016C65.1431 45.1077 65.9404 49.5798 66.9844 53.9972L70.1794 66.9972L67.2419 67.5097C66.2077 67.6895 65.2242 68.0895 64.3581 68.6826C63.492 69.2757 62.7635 70.048 62.2219 70.9472L61.7219 71.7722C61.2137 72.6121 60.4766 73.2896 59.5969 73.7252C58.7173 74.1608 57.7316 74.3365 56.7556 74.2316L55.7912 74.126C54.7516 74.0124 53.6997 74.1225 52.7062 74.4489C51.7126 74.7753 50.8004 75.3105 50.0306 76.0185L49.3875 76.6097C48.6503 77.2888 47.7306 77.7376 46.7417 77.9009C45.7527 78.0641 44.7376 77.9347 43.8212 77.5285L42.9637 77.1478C42.0287 76.734 41.0175 76.5203 39.995 76.5203C38.9725 76.5203 37.9613 76.734 37.0262 77.1478L36.1687 77.5285C35.2524 77.9344 34.2373 78.0637 33.2484 77.9005C32.2595 77.7373 31.3398 77.2886 30.6025 76.6097L29.9594 76.0185C29.1896 75.3105 28.2774 74.7753 27.2838 74.4489C26.2903 74.1225 25.2384 74.0124 24.1987 74.126L23.2344 74.2316C22.2585 74.336 21.2731 74.1602 20.3935 73.7247C19.514 73.2893 18.7767 72.6122 18.2681 71.7728L17.7712 70.9472C17.2297 70.048 16.5011 69.2757 15.635 68.6826C14.7689 68.0895 13.7854 67.6895 12.7513 67.5097L9.81375 66.9972L13.0113 53.9847C14.054 49.5703 14.8505 45.1013 15.3969 40.5985C15.4275 40.3442 15.368 40.0872 15.2288 39.8722C12.2852 35.629 8.76107 31.8196 4.75938 28.5553C4.32644 28.2108 4.03759 27.7172 3.9493 27.171C3.86101 26.6248 3.97963 26.0653 4.28196 25.6019C4.5843 25.1385 5.0486 24.8045 5.5841 24.6653C6.11959 24.5261 6.68776 24.5916 7.1775 24.8491C9.76148 26.1931 12.2039 27.7932 14.4681 29.6254C14.6261 29.7562 14.8176 29.8401 15.0209 29.8673C15.2242 29.8945 15.431 29.864 15.6178 29.7793C15.8046 29.6945 15.9638 29.559 16.0773 29.3881C16.1907 29.2172 16.2538 29.0179 16.2594 28.8128C16.2831 27.8385 16.3019 26.8641 16.3019 25.8891C16.3019 19.604 18.7986 13.5763 23.2429 9.132C27.6872 4.68774 33.7149 2.19098 40 2.19098C46.2851 2.19098 52.3128 4.68774 56.7571 9.132C61.2014 13.5763 63.6981 19.604 63.6981 25.8891C63.6981 26.8641 63.7169 27.8385 63.7406 28.8128C63.7456 29.0181 63.8083 29.2179 63.9215 29.3892C64.0347 29.5606 64.1939 29.6966 64.3808 29.7817C64.5677 29.8668 64.7748 29.8975 64.9783 29.8704C65.1819 29.8434 65.3737 29.7595 65.5319 29.6285C67.796 27.7961 70.2385 26.1958 72.8225 24.8516C73.0949 24.7085 73.394 24.6236 73.7009 24.6023C74.0079 24.581 74.3159 24.6237 74.6054 24.7277C74.895 24.8317 75.1597 24.9948 75.3829 25.2065C75.6061 25.4183 75.7828 25.6742 75.9019 25.9578C76.0923 26.4033 76.1307 26.8991 76.0112 27.3686C75.8917 27.8381 75.6209 28.2552 75.2406 28.5553Z" fill="white"/>
<path d="M31.9138 13.8281C29.3938 13.8281 27.3438 16.3344 27.3438 19.4144C27.3438 22.4944 29.3938 25 31.9138 25C34.4338 25 36.4844 22.4937 36.4844 19.4144C36.4844 16.335 34.4375 13.8281 31.9138 13.8281ZM31.9138 22.8125C30.6225 22.8125 29.5312 21.2562 29.5312 19.4144C29.5312 17.5725 30.625 16.0156 31.9138 16.0156C33.2025 16.0156 34.2969 17.5719 34.2969 19.4144C34.2969 21.2569 33.2056 22.8125 31.9138 22.8125Z" fill="white"/>
<path d="M48.0856 13.8281C45.5656 13.8281 43.5156 16.3344 43.5156 19.4144C43.5156 22.4944 45.5656 25 48.0856 25C50.6056 25 52.6562 22.4937 52.6562 19.4144C52.6562 16.335 50.6062 13.8281 48.0856 13.8281ZM48.0856 22.8125C46.7944 22.8125 45.7031 21.2562 45.7031 19.4144C45.7031 17.5725 46.7944 16.0156 48.0856 16.0156C49.3769 16.0156 50.4688 17.5719 50.4688 19.4144C50.4688 21.2569 49.375 22.8125 48.0856 22.8125Z" fill="white"/>
<path d="M40 24.2969C37.35 24.2969 35.2731 27.4713 35.2731 31.5238C35.2731 35.5763 37.35 38.75 40 38.75C42.65 38.75 44.7262 35.5756 44.7262 31.5238C44.7262 27.4719 42.65 24.2969 40 24.2969ZM40 36.5625C38.8013 36.5625 37.4606 34.4075 37.4606 31.5238C37.4606 28.64 38.8013 26.4844 40 26.4844C41.1988 26.4844 42.5388 28.6394 42.5388 31.5238C42.5388 34.4081 41.1988 36.5625 40 36.5625Z" fill="white"/>
</g>
<defs>
<clipPath id="clip0">
<rect width="80" height="80" fill="white"/>
</clipPath>
</defs>
</svg>
