<svg width="22" height="24" viewBox="0 0 22 24" fill="none" xmlns="http://www.w3.org/2000/svg">
<path d="M9.96662 23.5175C10.3866 23.5072 10.7896 23.3399 11.1044 23.045C11.4191 22.7501 11.6254 22.3468 11.6866 21.9062H8.17993C8.24291 22.3587 8.45882 22.7716 8.78747 23.068C9.11613 23.3644 9.53517 23.5241 9.96662 23.5175Z" fill="white"/>
<path d="M9.96662 23.5175C10.3866 23.5072 10.7896 23.3399 11.1044 23.045C11.4191 22.7501 11.6254 22.3468 11.6866 21.9062H8.17993C8.24291 22.3587 8.45882 22.7716 8.78747 23.068C9.11613 23.3644 9.53517 23.5241 9.96662 23.5175Z" stroke="white"/>
<path d="M19.7718 18.4152C19.1246 17.8256 18.558 17.1498 18.0872 16.4059C17.5733 15.379 17.2653 14.2576 17.1812 13.1074V9.7198C17.1785 9.30832 17.1426 8.89776 17.0738 8.49231C16.5456 8.38441 16.0379 8.18989 15.5705 7.91627C15.7486 8.50249 15.8392 9.11283 15.8389 9.72666V13.1143C15.9212 14.5174 16.2989 15.8857 16.9463 17.1259C17.4097 17.8762 17.9595 18.5668 18.5839 19.1832H1.39597C2.02041 18.5668 2.5702 17.8762 3.03356 17.1259C3.68095 15.8857 4.05868 14.5174 4.14094 13.1143V9.7198C4.13741 8.92617 4.28712 8.13962 4.5815 7.40519C4.87589 6.67077 5.30917 6.00288 5.85652 5.43979C6.40388 4.87669 7.05456 4.42944 7.77132 4.12365C8.48808 3.81786 9.25683 3.65954 10.0336 3.65774C11.1703 3.65867 12.2816 4.00217 13.2282 4.64523C13.1238 4.25365 13.0653 3.85082 13.0537 3.44516V3.01314C12.3529 2.6609 11.6001 2.42921 10.8255 2.32738V1.46333C10.8255 1.22053 10.7311 0.987676 10.5631 0.81599C10.3951 0.644304 10.1672 0.547852 9.92953 0.547852C9.6919 0.547852 9.46401 0.644304 9.29598 0.81599C9.12795 0.987676 9.03356 1.22053 9.03356 1.46333V2.36167C7.29914 2.61166 5.71179 3.49436 4.56458 4.84679C3.41736 6.19923 2.78774 7.93008 2.79195 9.7198V13.1074C2.70789 14.2576 2.39985 15.379 1.88591 16.4059C1.42341 17.1481 0.865903 17.8239 0.228188 18.4152C0.156598 18.4794 0.0992224 18.5585 0.0598775 18.6472C0.0205325 18.7359 0.000120669 18.8321 0 18.9295V19.8621C0 20.044 0.0707093 20.2184 0.196573 20.347C0.322436 20.4756 0.493143 20.5479 0.671141 20.5479H19.3289C19.5069 20.5479 19.6776 20.4756 19.8034 20.347C19.9293 20.2184 20 20.044 20 19.8621V18.9295C19.9999 18.8321 19.9795 18.7359 19.9401 18.6472C19.9008 18.5585 19.8434 18.4794 19.7718 18.4152Z" fill="white"/>
<path d="M17.9666 7.06667C19.8076 7.06667 21.2999 5.48474 21.2999 3.53333C21.2999 1.58193 19.8076 0 17.9666 0C16.1257 0 14.6333 1.58193 14.6333 3.53333C14.6333 5.48474 16.1257 7.06667 17.9666 7.06667Z" fill="url(#paint0_linear)"/>
<path d="M17.9666 7.06667C19.8076 7.06667 21.2999 5.48474 21.2999 3.53333C21.2999 1.58193 19.8076 0 17.9666 0C16.1257 0 14.6333 1.58193 14.6333 3.53333C14.6333 5.48474 16.1257 7.06667 17.9666 7.06667Z" stroke="white"/>
<defs>
<linearGradient id="paint0_linear" x1="17.9666" y1="0" x2="17.9666" y2="7.06667" gradientUnits="userSpaceOnUse">
<stop stop-color="#326CFF"/>
<stop offset="1" stop-color="#26FFF2"/>
</linearGradient>
</defs>
</svg>
