<svg width="114" height="114" viewBox="0 0 114 114" fill="none" xmlns="http://www.w3.org/2000/svg">
<g clip-path="url(#clip0)">
<path d="M55.1745 73.837L40.1695 58.0258C39.9721 57.8178 39.8654 57.5399 39.8729 57.2533C39.8804 56.9667 40.0015 56.6948 40.2095 56.4974L64.7578 33.2006C64.7861 33.1738 64.8143 33.147 64.8425 33.1202C69.7308 29.3948 76.1428 28.4338 84.443 30.1818C84.6574 30.2271 84.853 30.3365 85.0038 30.4954C85.1547 30.6544 85.2536 30.8554 85.2876 31.0719C86.6068 39.4584 85.3074 45.8082 81.3254 50.4933C81.3008 50.5227 81.2746 50.5506 81.2468 50.5769L56.6992 73.873C56.4919 74.0697 56.2151 74.1764 55.9294 74.1696C55.6437 74.1629 55.3723 74.0433 55.1745 73.837ZM42.482 57.3216L55.9987 71.5644L79.7206 49.052C83.1785 44.961 84.312 39.5751 83.2695 32.1554C75.9152 30.7303 70.4774 31.5807 66.2061 34.813L42.482 57.3216Z" fill="white"/>
<path d="M34.7153 55.5229C34.6125 55.4148 34.5332 55.2865 34.4823 55.1462C34.4315 55.0059 34.4103 54.8566 34.42 54.7077L34.565 52.555C34.6976 50.3619 35.4596 48.2536 36.7596 46.4824C38.0596 44.7113 39.8427 43.3524 41.8952 42.5686L42.0272 42.5193C46.4229 40.8982 51.2744 41.0353 55.5715 42.9019C55.7268 42.9797 55.861 43.0937 55.9628 43.2344C56.0646 43.3751 56.1311 43.5382 56.1565 43.71C56.182 43.8817 56.1656 44.0571 56.109 44.2213C56.0523 44.3854 55.9569 44.5335 55.8308 44.6529L44.7984 55.1229C44.6652 55.2491 44.5022 55.3394 44.3245 55.3852C44.1468 55.4309 43.9605 55.4308 43.7829 55.3846C41.1651 54.7834 38.4316 54.9234 35.889 55.7891C35.7194 55.8538 35.5363 55.8747 35.3566 55.8499C35.1768 55.8252 35.0062 55.7556 34.8604 55.6475C34.8085 55.6102 34.76 55.5685 34.7153 55.5229ZM42.2716 43.5825L42.6481 44.5949C40.9857 45.2332 39.5426 46.3373 38.4916 47.7748C37.4406 49.2123 36.8263 50.9224 36.7223 52.7001L36.6812 53.3055C38.9931 52.7441 41.3994 52.692 43.7335 53.1527L53.087 44.276C49.7054 43.2633 46.0885 43.3595 42.7655 44.5505L42.2716 43.5825Z" fill="white"/>
<path d="M57.3952 79.4222C57.3513 79.3759 57.3114 79.326 57.276 79.273C57.1757 79.1218 57.1151 78.9477 57.0998 78.7669C57.0845 78.5861 57.1149 78.4043 57.1883 78.2384C58.1858 75.7445 58.4686 73.022 58.005 70.3764C57.9682 70.1967 57.9778 70.0106 58.0328 69.8355C58.0878 69.6605 58.1864 69.5024 58.3194 69.376L69.3542 58.9038C69.4801 58.7842 69.633 58.6967 69.7999 58.6486C69.9667 58.6006 70.1427 58.5935 70.3129 58.6279C70.4831 58.6622 70.6426 58.7371 70.7777 58.8462C70.9129 58.9552 71.0198 59.0952 71.0894 59.2543C72.7287 63.6431 72.6119 68.4952 70.7633 72.8001L70.7072 72.9294C69.8171 74.9381 68.3669 76.6476 66.5302 77.8533C64.6935 79.059 62.5482 79.7096 60.3512 79.7274L58.1939 79.7597C58.0447 79.7616 57.8967 79.7326 57.7592 79.6745C57.6217 79.6164 57.4978 79.5305 57.3952 79.4222ZM60.2336 70.5403C60.5717 72.8952 60.3939 75.2955 59.7124 77.5749L60.319 77.5655C62.0991 77.5543 63.8383 77.0304 65.3283 76.0565C66.8183 75.0825 67.9961 73.6997 68.7207 72.0737L69.7609 72.3846L68.7656 71.964C70.1287 68.7079 70.4139 65.1009 69.5793 61.671L60.2336 70.5403Z" fill="white"/>
<path d="M69.2158 45.4927C68.4404 44.676 67.9246 43.6476 67.7336 42.5377C67.5427 41.4278 67.6852 40.2862 68.1431 39.2572C68.601 38.2283 69.3537 37.3583 70.3061 36.7571C71.2585 36.156 72.3678 35.8509 73.4936 35.8802C74.6194 35.9095 75.7113 36.2721 76.6311 36.922C77.5509 37.5719 78.2573 38.48 78.6609 39.5314C79.0646 40.5827 79.1475 41.7302 78.899 42.8287C78.6505 43.9272 78.0818 44.9273 77.2649 45.7025C76.1688 46.7403 74.7059 47.3011 73.197 47.2618C71.688 47.2224 70.2563 46.5862 69.2158 45.4927ZM75.9071 39.1426C75.4263 38.6357 74.806 38.2827 74.1246 38.1284C73.4433 37.9741 72.7314 38.0253 72.0792 38.2756C71.4269 38.5259 70.8635 38.964 70.4603 39.5345C70.057 40.105 69.832 40.7823 69.8138 41.4807C69.7955 42.1791 69.9848 42.8672 70.3576 43.458C70.7305 44.0489 71.2702 44.5158 71.9085 44.7999C72.5468 45.0839 73.255 45.1723 73.9435 45.0538C74.632 44.9353 75.2699 44.6153 75.7765 44.1342C76.4547 43.489 76.8493 42.6011 76.8738 41.6654C76.8983 40.7296 76.5506 39.8224 75.9071 39.1426Z" fill="white"/>
<path d="M51.1626 76.1024L37.698 61.9145C37.5006 61.7065 37.3939 61.4286 37.4014 61.142C37.4089 60.8554 37.53 60.5835 37.7379 60.3861L40.9797 57.3096C41.1877 57.1122 41.4655 57.0056 41.7521 57.0131C42.0388 57.0206 42.3107 57.1416 42.508 57.3496L55.9726 71.5376C56.17 71.7455 56.2767 72.0234 56.2692 72.31C56.2617 72.5966 56.1406 72.8685 55.9327 73.0659L52.6909 76.1424C52.4829 76.3398 52.2051 76.4464 51.9185 76.4389C51.6318 76.4314 51.3599 76.3104 51.1626 76.1024ZM40.0105 61.2102L51.9867 73.8299L53.6601 72.2418L41.6839 59.6221L40.0105 61.2102Z" fill="white"/>
<path d="M30.1693 82.6487C29.7003 82.1062 29.404 81.4362 29.3181 80.7243C29.2322 80.0125 29.3608 79.2911 29.6873 78.6528C30.5727 76.4955 31.1733 74.2321 31.4738 71.9196C32.1117 67.9714 32.6154 64.8523 39.5515 61.7723C39.7555 61.6815 39.9827 61.6561 40.2017 61.6996C40.4207 61.7432 40.6209 61.8535 40.7748 62.0154L51.2113 73.0125C51.3652 73.1746 51.4651 73.3804 51.4972 73.6016C51.5294 73.8227 51.4922 74.0485 51.3908 74.2476C50.5365 76.0717 49.3818 77.7393 47.975 79.1808C45.7621 81.2809 43.4962 81.5474 40.8729 81.8566C38.5691 82.0572 36.3004 82.5514 34.1218 83.3271C33.4715 83.6211 32.7482 83.714 32.0448 83.5939C31.3413 83.4739 30.6897 83.1464 30.1737 82.6534L30.1693 82.6487ZM39.7385 64.0644C34.5353 66.5268 34.1987 68.6079 33.609 72.2661C33.2803 74.75 32.6317 77.1811 31.6794 79.4986C31.3852 80.1906 31.4079 80.8129 31.7391 81.1619C32.0665 81.5069 32.6793 81.5574 33.3765 81.3011C35.7149 80.4673 38.1496 79.933 40.6223 79.7111C43.1345 79.4136 44.7974 79.2201 46.4889 77.6149C47.5487 76.5337 48.4342 75.2946 49.1138 73.9418L39.7385 64.0644Z" fill="white"/>
<path d="M37.5606 75.5814C37.2517 75.2289 37.0538 74.7929 36.9918 74.3283C36.9298 73.8637 37.0065 73.3912 37.2122 72.97C37.6475 71.9082 37.9432 70.7945 38.0918 69.6566C38.4169 67.6669 38.6988 65.9507 41.9449 64.3471C42.1518 64.246 42.3855 64.2136 42.6121 64.2546C42.8386 64.2956 43.0462 64.4079 43.2045 64.5751L48.7859 70.4563C48.9443 70.6232 49.0453 70.8362 49.0743 71.0645C49.1032 71.2927 49.0586 71.5242 48.947 71.7254C48.5392 72.4992 48.0175 73.2073 47.3993 73.826C46.3118 74.784 44.9166 75.32 43.4675 75.3367C42.3343 75.4365 41.2184 75.6796 40.1465 76.0604C39.7171 76.2446 39.2427 76.2977 38.7831 76.213C38.3235 76.1284 37.8992 75.9097 37.5636 75.5845L37.5606 75.5814ZM42.201 66.6586C40.6134 67.5959 40.4795 68.4175 40.2209 70.0029C40.0456 71.3109 39.7024 72.5909 39.1998 73.8111C39.1533 73.902 39.1324 74.0037 39.1393 74.1055C39.1407 74.0818 39.2385 74.0874 39.396 74.0289C40.629 73.5873 41.9133 73.3046 43.2178 73.1875C44.1985 73.2119 45.1551 72.8815 45.9117 72.257C46.1924 71.9813 46.441 71.6749 46.6529 71.3434L42.201 66.6586Z" fill="white"/>
<path d="M52.0401 61.7932C51.8428 61.5852 51.7361 61.3073 51.7436 61.0207C51.7511 60.7341 51.8721 60.4622 52.0801 60.2648L56.6769 55.9024C56.8849 55.705 57.1628 55.5984 57.4494 55.6059C57.736 55.6133 58.0079 55.7344 58.2053 55.9424C58.4027 56.1503 58.5093 56.4282 58.5018 56.7148C58.4943 57.0015 58.3733 57.2734 58.1653 57.4707L53.5685 61.8332C53.3605 62.0305 53.0827 62.1372 52.796 62.1297C52.5094 62.1222 52.2375 62.0012 52.0401 61.7932Z" fill="white"/>
<path d="M48.5617 58.0885C48.3643 57.8805 48.2577 57.6027 48.2652 57.3161C48.2727 57.0294 48.3937 56.7575 48.6017 56.5602L50.6233 54.6416C50.8312 54.4443 51.1091 54.3376 51.3957 54.3451C51.6824 54.3526 51.9543 54.4737 52.1516 54.6816C52.349 54.8896 52.4557 55.1675 52.4482 55.4541C52.4407 55.7407 52.3196 56.0126 52.1116 56.21L50.0901 58.1285C49.8821 58.3259 49.6042 58.4325 49.3176 58.425C49.031 58.4175 48.7591 58.2965 48.5617 58.0885Z" fill="white"/>
<path d="M55.5482 65.4508C55.3508 65.2429 55.2442 64.965 55.2517 64.6784C55.2592 64.3917 55.3802 64.1198 55.5882 63.9225L57.6098 62.004C57.8178 61.8066 58.0956 61.6999 58.3822 61.7074C58.6689 61.7149 58.9408 61.836 59.1381 62.0439C59.3355 62.2519 59.4422 62.5298 59.4347 62.8164C59.4272 63.103 59.3061 63.3749 59.0982 63.5723L57.0766 65.4908C56.8686 65.6882 56.5907 65.7949 56.3041 65.7874C56.0175 65.7799 55.7456 65.6588 55.5482 65.4508Z" fill="white"/>
</g>
<defs>
<clipPath id="clip0">
<rect width="80" height="80" fill="white" transform="translate(58.0294) rotate(46.4984)"/>
</clipPath>
</defs>
</svg>
