<svg width="80" height="80" viewBox="0 0 80 80" fill="none" xmlns="http://www.w3.org/2000/svg">
<path d="M56.8121 49.1389C56.0956 48.4972 54.9947 48.5598 54.3565 49.2745C50.7287 53.3285 45.4974 55.6519 40 55.6519C34.5043 55.6519 29.2713 53.3285 25.6434 49.2745C25.0017 48.5598 23.9043 48.4972 23.1878 49.1389C22.4713 49.7789 22.4121 50.878 23.0521 51.5946C27.3391 56.3841 33.5165 59.1302 40 59.1302C46.4852 59.1302 52.6626 56.3824 56.9478 51.5946C57.5878 50.878 57.5269 49.7789 56.8121 49.1389Z" fill="white"/>
<path d="M40 0C17.9443 0 0 17.9443 0 40C0 62.0556 17.9443 80 40 80C62.0556 80 80 62.0556 80 40C80 17.9443 62.0556 0 40 0ZM40 76.5217C19.8609 76.5217 3.47826 60.1391 3.47826 40C3.47826 19.8609 19.8609 3.47826 40 3.47826C60.1391 3.47826 76.5217 19.8609 76.5217 40C76.5217 60.1391 60.1391 76.5217 40 76.5217Z" fill="white"/>
<path d="M53.9131 27.8262C49.1183 27.8262 45.2174 31.727 45.2174 36.5218C45.2174 37.4818 45.9965 38.261 46.9565 38.261C47.9165 38.261 48.6957 37.4818 48.6957 36.5218C48.6957 33.6453 51.0365 31.3044 53.9131 31.3044C56.7896 31.3044 59.1304 33.6453 59.1304 36.5218C59.1304 37.4818 59.9096 38.261 60.8696 38.261C61.8296 38.261 62.6087 37.4818 62.6087 36.5218C62.6087 31.727 58.7078 27.8262 53.9131 27.8262Z" fill="white"/>
<path d="M31.3044 36.5218C31.3044 37.4818 32.0835 38.261 33.0435 38.261C34.0035 38.261 34.7827 37.4818 34.7827 36.5218C34.7827 31.727 30.8818 27.8262 26.087 27.8262C21.2922 27.8262 17.3914 31.727 17.3914 36.5218C17.3914 37.4818 18.1705 38.261 19.1305 38.261C20.0905 38.261 20.8696 37.4818 20.8696 36.5218C20.8696 33.6453 23.2105 31.3044 26.087 31.3044C28.9635 31.3044 31.3044 33.6453 31.3044 36.5218Z" fill="white"/>
</svg>
